<svg width="52" height="16" viewBox="0 0 52 16" fill="none" xmlns="http://www.w3.org/2000/svg">
<g clip-path="url(#clip0_29_1070)">
<path fill-rule="evenodd" clip-rule="evenodd" d="M32.2597 12.5126C29.2379 14.7867 24.858 16.0001 21.087 16.0001C15.7994 16.0001 11.0392 14.0033 7.43789 10.6822C7.15495 10.421 7.40846 10.0651 7.74799 10.2685C11.6345 12.5773 16.4399 13.9663 21.4039 13.9663C24.7516 13.9663 28.4344 13.2591 31.8206 11.7915C32.3322 11.5696 32.76 12.1335 32.2597 12.5126Z" fill="#FF9900"/>
<path fill-rule="evenodd" clip-rule="evenodd" d="M33.5159 11.045C33.1311 10.5412 30.9627 10.807 29.9894 10.9248C29.6928 10.9618 29.6476 10.6983 29.9147 10.5088C31.6417 9.26775 34.4757 9.62597 34.8062 10.042C35.1366 10.4603 34.7201 13.3608 33.0972 14.7451C32.8482 14.9578 32.6105 14.8445 32.7214 14.5626C33.0859 13.6335 33.903 11.5511 33.5159 11.045Z" fill="#FF9900"/>
<path fill-rule="evenodd" clip-rule="evenodd" d="M30.0574 1.74732V0.540909C30.0574 0.35833 30.1932 0.23584 30.3562 0.23584H35.646C35.8158 0.23584 35.9516 0.360641 35.9516 0.540909V1.57399C35.9494 1.74732 35.8068 1.97381 35.5532 2.33204L32.8121 6.32799C33.8307 6.30257 34.9059 6.45742 35.8294 6.98898C36.0376 7.10916 36.0942 7.2848 36.1101 7.45814V8.74544C36.1101 8.92109 35.9199 9.12678 35.7207 9.02046C34.0933 8.14917 31.9316 8.05441 30.1321 9.02971C29.9487 9.1314 29.7563 8.92802 29.7563 8.75237V7.52978C29.7563 7.33334 29.7586 6.99822 29.951 6.70008L33.1267 2.05008H30.363C30.1932 2.05008 30.0574 1.92759 30.0574 1.74732Z" fill="black"/>
<path fill-rule="evenodd" clip-rule="evenodd" d="M10.7608 9.2745H9.15148C8.99756 9.26295 8.87533 9.14508 8.86401 8.99486V0.561528C8.86401 0.392815 9.00209 0.258768 9.17412 0.258768H10.6748C10.831 0.265697 10.9555 0.388192 10.9668 0.540726V1.64314H10.9963C11.3878 0.577705 12.1235 0.0808105 13.1149 0.0808105C14.1222 0.0808105 14.7514 0.577705 15.2042 1.64314C15.5935 0.577705 16.4785 0.0808105 17.4269 0.0808105C18.1015 0.0808105 18.8394 0.36508 19.2898 1.00295C19.7991 1.71247 19.695 2.74324 19.695 3.64689L19.6927 8.96944C19.6927 9.13815 19.5547 9.2745 19.3826 9.2745H17.7755C17.6148 9.26295 17.4858 9.13122 17.4858 8.96944V4.4997C17.4858 4.14379 17.5175 3.25631 17.4405 2.91888C17.3206 2.35266 16.9607 2.19319 16.4944 2.19319C16.105 2.19319 15.6976 2.45897 15.5324 2.88422C15.3671 3.30947 15.383 4.02129 15.383 4.4997V8.96944C15.383 9.13815 15.2449 9.2745 15.0729 9.2745H13.4658C13.3028 9.26295 13.176 9.13122 13.176 8.96944L13.1738 4.4997C13.1738 3.55907 13.3254 2.1747 12.1823 2.1747C11.0257 2.1747 11.071 3.5244 11.071 4.4997V8.96944C11.071 9.13815 10.9329 9.2745 10.7608 9.2745Z" fill="black"/>
<path fill-rule="evenodd" clip-rule="evenodd" d="M40.5059 0.0808105C42.8939 0.0808105 44.1864 2.1747 44.1864 4.83713C44.1864 7.40942 42.7581 9.45015 40.5059 9.45015C38.1609 9.45015 36.8843 7.35626 36.8843 4.74699C36.8843 2.12154 38.1768 0.0808105 40.5059 0.0808105ZM40.5195 1.80261C39.3334 1.80261 39.2587 3.45276 39.2587 4.48121C39.2587 5.51198 39.2429 7.71218 40.5059 7.71218C41.7531 7.71218 41.812 5.93723 41.812 4.85561C41.812 4.14379 41.7825 3.29329 41.572 2.61844C41.391 2.03141 41.0311 1.80261 40.5195 1.80261Z" fill="black"/>
<path fill-rule="evenodd" clip-rule="evenodd" d="M47.2828 9.2745H45.6802C45.5195 9.26295 45.3904 9.13122 45.3904 8.96944L45.3882 0.533793C45.4018 0.378947 45.5353 0.258768 45.6983 0.258768H47.1899C47.3303 0.265697 47.4457 0.36277 47.4774 0.494504V1.78412H47.5068C47.9573 0.630861 48.5888 0.0808105 49.7002 0.0808105C50.4223 0.0808105 51.1262 0.346592 51.5789 1.0746C51.9999 1.74945 51.9999 2.88422 51.9999 3.70005V9.00873C51.9818 9.15664 51.8483 9.2745 51.6898 9.2745H50.0759C49.9288 9.26295 49.8066 9.15202 49.7907 9.00873V4.42806C49.7907 3.50591 49.8949 2.15621 48.7835 2.15621C48.3919 2.15621 48.032 2.4243 47.8532 2.83106C47.6268 3.34645 47.5974 3.85952 47.5974 4.42806V8.96944C47.5951 9.13815 47.4548 9.2745 47.2828 9.2745Z" fill="black"/>
<path fill-rule="evenodd" clip-rule="evenodd" d="M25.8405 5.24628C25.8405 5.88646 25.8563 6.42033 25.5394 6.98887C25.2836 7.4511 24.8762 7.73537 24.4258 7.73537C23.8078 7.73537 23.4457 7.25465 23.4457 6.54513C23.4457 5.14459 24.6748 4.89036 25.8405 4.89036V5.24628ZM27.4634 9.25147C27.357 9.34854 27.2031 9.35547 27.0832 9.29076C26.549 8.83778 26.4516 8.62747 26.1596 8.19529C25.2769 9.11512 24.6499 9.39014 23.5068 9.39014C22.1509 9.39014 21.0984 8.53733 21.0984 6.82941C21.0984 5.49588 21.8046 4.5876 22.8141 4.14387C23.6879 3.75097 24.9079 3.68164 25.8405 3.57302V3.36039C25.8405 2.96981 25.8699 2.50758 25.6435 2.17016C25.4489 1.8674 25.0731 1.7426 24.7404 1.7426C24.127 1.7426 23.5815 2.06384 23.4479 2.72945C23.4208 2.87736 23.3144 3.02297 23.1673 3.0299L21.6077 2.85887C21.4764 2.82883 21.3293 2.72021 21.3677 2.51452C21.7254 0.582408 23.4366 0 24.9668 0C25.7499 0 26.773 0.212625 27.391 0.818142C28.1742 1.56464 28.0995 2.56074 28.0995 3.64466V6.2054C28.0995 6.97501 28.4118 7.31243 28.7061 7.72844C28.808 7.87635 28.8306 8.05431 28.6993 8.16524C28.3711 8.44489 27.7871 8.96489 27.4657 9.2561L27.4634 9.25147Z" fill="black"/>
<path fill-rule="evenodd" clip-rule="evenodd" d="M4.74209 5.24628C4.74209 5.88646 4.75793 6.42033 4.44104 6.98887C4.18526 7.4511 3.78009 7.73537 3.32738 7.73537C2.70944 7.73537 2.34954 7.25465 2.34954 6.54513C2.34954 5.14459 3.57863 4.89036 4.74209 4.89036V5.24628ZM6.36504 9.25147C6.25865 9.34854 6.10473 9.35547 5.98476 9.29076C5.45057 8.83778 5.3555 8.62747 5.06124 8.19529C4.17847 9.11512 3.55374 9.39014 2.40839 9.39014C1.0548 9.39014 0 8.53733 0 6.82941C0 5.49588 0.708484 4.5876 1.71575 4.14387C2.58947 3.75097 3.80951 3.68164 4.74209 3.57302V3.36039C4.74209 2.96981 4.77151 2.50758 4.54742 2.17016C4.3505 1.8674 3.97475 1.7426 3.64428 1.7426C3.03086 1.7426 2.48309 2.06384 2.34954 2.72945C2.32238 2.87736 2.21599 3.02297 2.07113 3.0299L0.509293 2.85887C0.378009 2.82883 0.233143 2.72021 0.269359 2.51452C0.62926 0.582408 2.33822 0 3.86837 0C4.65155 0 5.67466 0.212625 6.2926 0.818142C7.07578 1.56464 7.00109 2.56074 7.00109 3.64466V6.2054C7.00109 6.97501 7.31345 7.31243 7.60771 7.72844C7.71183 7.87635 7.73447 8.05431 7.60318 8.16524C7.27497 8.44489 6.69098 8.96489 6.36956 9.2561L6.36504 9.25147Z" fill="black"/>
</g>
<defs>
<clipPath id="clip0_29_1070">
<rect width="52" height="16" fill="white"/>
</clipPath>
</defs>
</svg>
