<svg width="147" height="17" viewBox="0 0 147 17" fill="none" xmlns="http://www.w3.org/2000/svg">
<g clip-path="url(#clip0_24_487)">
<path d="M3.106 7.11404L2.11417 12.9347H0.574219L2.24467 3.2588H3.73242L3.47141 4.77066H3.60192C3.91513 4.27931 4.33926 3.88455 4.87434 3.58637C5.4094 3.284 6.0554 3.13281 6.81232 3.13281C7.48225 3.13281 8.04779 3.2672 8.50885 3.53598C8.97435 3.80055 9.3028 4.20372 9.49421 4.74546C9.68998 5.28301 9.71823 5.96335 9.57904 6.78647L8.50885 12.9347H6.96892L8.01295 6.88726C8.14349 6.13133 8.04121 5.53919 7.70624 5.11083C7.37566 4.68247 6.85147 4.46829 6.1337 4.46829C5.63779 4.46829 5.17884 4.57118 4.75688 4.77696C4.33926 4.98274 3.98473 5.28301 3.69327 5.67777C3.40616 6.07254 3.2104 6.55129 3.106 7.11404Z" fill="black"/>
<path d="M13.99 13.1363C13.0677 13.1363 12.2956 12.9242 11.6735 12.5C11.0515 12.0759 10.6121 11.4816 10.3554 10.7173C10.1032 9.95298 10.0618 9.06269 10.2315 8.04639C10.3968 7.05524 10.7252 6.19223 11.2168 5.4573C11.7126 4.71817 12.3282 4.14702 13.0634 3.74386C13.803 3.33649 14.6164 3.13281 15.5038 3.13281C16.4261 3.13281 17.1961 3.347 17.8138 3.77535C18.4358 4.19951 18.8752 4.79586 19.1319 5.56439C19.3885 6.32872 19.432 7.22323 19.2623 8.24795C19.097 9.23062 18.7643 10.0895 18.264 10.8244C17.7681 11.5551 17.1526 12.1242 16.4173 12.5315C15.6865 12.9347 14.8774 13.1363 13.99 13.1363ZM14.0161 11.8008C14.7208 11.8008 15.332 11.6265 15.8496 11.2779C16.3717 10.9294 16.7936 10.4696 17.1156 9.89835C17.4418 9.32723 17.6615 8.70991 17.7746 8.04639C17.879 7.41643 17.8746 6.83056 17.7615 6.28882C17.6485 5.74287 17.407 5.30401 17.0373 4.97224C16.6675 4.63627 16.1477 4.46829 15.4778 4.46829C14.773 4.46829 14.1574 4.64467 13.6311 4.99744C13.1091 5.3502 12.6871 5.81426 12.3652 6.38961C12.0433 6.96495 11.828 7.58436 11.7192 8.24795C11.6148 8.87784 11.6169 9.46374 11.7257 10.0055C11.8388 10.543 12.0803 10.9777 12.45 11.3094C12.8241 11.637 13.3462 11.8008 14.0161 11.8008Z" fill="black"/>
<path d="M25.3763 3.25862L25.1674 4.51849H19.9734L20.1822 3.25862H25.3763ZM22.0875 0.94043H23.6275L22.0353 10.1628C21.9657 10.5827 21.9766 10.8977 22.068 11.1077C22.1637 11.3135 22.3072 11.452 22.4986 11.5234C22.6943 11.5906 22.9053 11.6243 23.1316 11.6243C23.3012 11.6243 23.4404 11.6158 23.5492 11.5991C23.658 11.5781 23.7449 11.5612 23.8102 11.5486L23.9146 12.8841C23.7971 12.9219 23.6384 12.9597 23.4382 12.9975C23.2425 13.0395 23.0011 13.0605 22.7139 13.0605C22.2789 13.0605 21.87 12.9702 21.4872 12.7896C21.1044 12.609 20.8108 12.334 20.6063 11.9644C20.4018 11.5948 20.3475 11.1287 20.4432 10.5659L22.0875 0.94043Z" fill="black"/>
<path d="M30.8687 3.25862V5.77838H24.2651V3.25862H30.8687ZM25.5441 0.94043H29.146V9.82263C29.146 9.957 29.17 10.0704 29.2178 10.1628C29.2657 10.251 29.3396 10.3181 29.4396 10.3643C29.5397 10.4063 29.668 10.4273 29.8246 10.4273C29.9334 10.4273 30.0595 10.4147 30.2031 10.3895C30.351 10.3643 30.4597 10.3433 30.5293 10.3266L31.0514 12.7707C30.8904 12.8169 30.6599 12.8736 30.3597 12.9408C30.0639 13.008 29.7116 13.0521 29.3026 13.0731C28.4761 13.1151 27.7823 13.0332 27.2211 12.8274C26.6599 12.6174 26.2379 12.2878 25.9552 11.8384C25.6724 11.3891 25.5354 10.8263 25.5441 10.1501V0.94043Z" fill="black"/>
<path d="M34.6857 7.49174V12.9344H31.0837V0.0332031H34.5552V5.09792H34.6596C34.8858 4.48059 35.2621 3.99973 35.7884 3.65536C36.3148 3.3068 36.9477 3.13251 37.6873 3.13251C38.3964 3.13251 39.0119 3.2879 39.5339 3.59866C40.0603 3.90944 40.467 4.33779 40.7541 4.88375C41.0456 5.4297 41.1891 6.05544 41.1848 6.76097V12.9344H37.5829V7.49174C37.5872 7.01294 37.4632 6.63708 37.211 6.36411C36.963 6.09113 36.6084 5.95464 36.1474 5.95464C35.8559 5.95464 35.5992 6.01764 35.3774 6.14363C35.1599 6.26542 34.9902 6.4418 34.8684 6.67278C34.7509 6.89955 34.69 7.17253 34.6857 7.49174Z" fill="black"/>
<path d="M46.2954 13.1111C45.2252 13.1111 44.303 12.9137 43.5287 12.5189C42.7588 12.12 42.1649 11.5488 41.7473 10.8055C41.3341 10.0579 41.1274 9.16344 41.1274 8.12193C41.1274 7.12244 41.3362 6.24892 41.7539 5.50139C42.1714 4.75386 42.7609 4.17221 43.5222 3.75645C44.2834 3.34069 45.1817 3.13281 46.2171 3.13281C46.974 3.13281 47.6591 3.2462 48.2726 3.47298C48.8859 3.69976 49.4101 4.02943 49.8451 4.46199C50.2801 4.89035 50.6151 5.4111 50.85 6.02424C51.0849 6.63739 51.2024 7.32822 51.2024 8.09672V8.90304H42.2498V6.98805H47.8875C47.8832 6.71088 47.8092 6.4673 47.6656 6.25732C47.5265 6.04314 47.3373 5.87726 47.098 5.75967C46.8631 5.63788 46.5955 5.57698 46.2954 5.57698C46.0039 5.57698 45.7364 5.63788 45.4928 5.75967C45.2492 5.87726 45.0534 6.04104 44.9055 6.25102C44.7619 6.461 44.6858 6.70668 44.6771 6.98805V9.05427C44.6771 9.365 44.7446 9.64217 44.8794 9.88579C45.0143 10.1293 45.2078 10.3205 45.4602 10.4591C45.7125 10.5976 46.017 10.6669 46.3737 10.6669C46.6216 10.6669 46.8479 10.6333 47.0523 10.5661C47.2611 10.4989 47.4395 10.4024 47.5874 10.2763C47.7353 10.1462 47.844 9.99075 47.9136 9.81018H51.2024C51.0892 10.4821 50.8217 11.0659 50.3998 11.5614C49.9778 12.0528 49.4188 12.435 48.7227 12.7079C48.0311 12.9767 47.222 13.1111 46.2954 13.1111Z" fill="black"/>
<path d="M51.1499 12.9344V0.0332031H54.7519V4.94674H54.8041C54.9345 4.61917 55.1259 4.3189 55.3783 4.04593C55.6306 3.76875 55.9438 3.54827 56.3179 3.38449C56.692 3.2165 57.127 3.13251 57.623 3.13251C58.2842 3.13251 58.9127 3.3026 59.5087 3.64276C60.109 3.98293 60.5963 4.51838 60.9703 5.24911C61.3489 5.97985 61.5381 6.92896 61.5381 8.09642C61.5381 9.21354 61.3575 10.1395 60.9965 10.8745C60.6397 11.6094 60.1612 12.1575 59.5609 12.5186C58.9649 12.8798 58.3103 13.0603 57.5968 13.0603C57.127 13.0603 56.7072 12.9869 56.3375 12.8399C55.972 12.6887 55.6588 12.485 55.3978 12.2288C55.1412 11.9685 54.9433 11.6745 54.8041 11.347H54.7258V12.9344H51.1499ZM54.6735 8.09642C54.6735 8.5668 54.7366 8.97414 54.8628 9.3185C54.9933 9.65872 55.1759 9.92325 55.4109 10.1122C55.6502 10.297 55.9351 10.3894 56.2657 10.3894C56.5963 10.3894 56.8769 10.2991 57.1075 10.1185C57.3424 9.93375 57.5207 9.67128 57.6425 9.33114C57.7687 8.98678 57.8317 8.57523 57.8317 8.09642C57.8317 7.61768 57.7687 7.20823 57.6425 6.86806C57.5207 6.52369 57.3424 6.26122 57.1075 6.08063C56.8769 5.89585 56.5963 5.80346 56.2657 5.80346C55.9351 5.80346 55.6502 5.89585 55.4109 6.08063C55.1759 6.26122 54.9933 6.52369 54.8628 6.86806C54.7366 7.20823 54.6735 7.61768 54.6735 8.09642Z" fill="black"/>
<path d="M66.3779 13.1111C65.3078 13.1111 64.3855 12.9137 63.6112 12.5189C62.8413 12.12 62.2475 11.5488 61.8298 10.8055C61.4166 10.0579 61.21 9.16344 61.21 8.12193C61.21 7.12244 61.4187 6.24892 61.8364 5.50139C62.254 4.75386 62.8434 4.17221 63.6047 3.75645C64.3659 3.34069 65.2642 3.13281 66.2996 3.13281C67.0565 3.13281 67.7417 3.2462 68.3551 3.47298C68.9684 3.69976 69.4926 4.02943 69.9276 4.46199C70.3626 4.89035 70.6976 5.4111 70.9325 6.02424C71.1674 6.63739 71.2849 7.32822 71.2849 8.09672V8.90304H62.3323V6.98805H67.97C67.9657 6.71088 67.8918 6.4673 67.7482 6.25732C67.609 6.04314 67.4198 5.87726 67.1805 5.75967C66.9456 5.63788 66.6781 5.57698 66.3779 5.57698C66.0865 5.57698 65.8189 5.63788 65.5753 5.75967C65.3317 5.87726 65.1359 6.04104 64.988 6.25102C64.8445 6.461 64.7684 6.70668 64.7596 6.98805V9.05427C64.7596 9.365 64.8271 9.64217 64.962 9.88579C65.0968 10.1293 65.2904 10.3205 65.5427 10.4591C65.795 10.5976 66.0995 10.6669 66.4563 10.6669C66.7042 10.6669 66.9304 10.6333 67.1348 10.5661C67.3436 10.4989 67.522 10.4024 67.6699 10.2763C67.8178 10.1462 67.9266 9.99075 67.9962 9.81018H71.2849C71.1717 10.4821 70.9042 11.0659 70.4823 11.5614C70.0603 12.0528 69.5013 12.435 68.8053 12.7079C68.1136 12.9767 67.3045 13.1111 66.3779 13.1111Z" fill="black"/>
<path d="M80.4465 6.40851H77.1314C77.1138 6.21113 77.0425 6.04104 76.9162 5.89825C76.7899 5.75547 76.6268 5.64628 76.4266 5.57069C76.2308 5.49089 76.0134 5.451 75.7741 5.451C75.4652 5.451 75.1999 5.50559 74.978 5.61478C74.7562 5.72397 74.6474 5.87935 74.6517 6.08094C74.6474 6.22372 74.7105 6.35601 74.841 6.4778C74.9758 6.59959 75.2347 6.69408 75.6175 6.76127L77.6535 7.11404C78.6802 7.29462 79.4436 7.59907 79.9435 8.02747C80.4481 8.45158 80.703 9.02064 80.7068 9.73456C80.703 10.4234 80.4894 11.0218 80.0675 11.5299C79.6503 12.0339 79.0783 12.4244 78.3518 12.7016C77.6298 12.9746 76.8052 13.1111 75.8785 13.1111C74.3472 13.1111 73.1488 12.8087 72.2831 12.204C71.4218 11.5992 70.9411 10.8013 70.8411 9.81018H74.4168C74.4647 10.1168 74.6213 10.354 74.8867 10.522C75.1564 10.6858 75.4957 10.7677 75.9046 10.7677C76.2352 10.7677 76.5071 10.7131 76.7202 10.6039C76.9377 10.4948 77.0487 10.3393 77.0533 10.1378C77.0487 9.95298 76.953 9.80596 76.7662 9.69679C76.5832 9.58762 76.2961 9.49945 75.9046 9.43226L74.1297 9.12988C73.1075 8.95766 72.3418 8.63008 71.8329 8.14713C71.3239 7.66419 71.0716 7.04265 71.076 6.28252C71.0716 5.61059 71.2543 5.04154 71.6241 4.57538C71.9982 4.10502 72.5311 3.74806 73.2228 3.50448C73.9188 3.25671 74.7431 3.13281 75.6958 3.13281C77.1444 3.13281 78.2867 3.42259 79.1212 4.00213C79.9611 4.58168 80.4029 5.3838 80.4465 6.40851Z" fill="black"/>
<path d="M86.5945 3.25862V5.77838H79.991V3.25862H86.5945ZM81.2696 0.94043H84.8718V9.82263C84.8718 9.957 84.8956 10.0704 84.9438 10.1628C84.9913 10.251 85.0655 10.3181 85.1651 10.3643C85.2654 10.4063 85.394 10.4273 85.5502 10.4273C85.6589 10.4273 85.7852 10.4147 85.9284 10.3895C86.0769 10.3643 86.1856 10.3433 86.2553 10.3266L86.7767 12.7707C86.6159 12.8169 86.3855 12.8736 86.0853 12.9408C85.7898 13.008 85.4369 13.0521 85.028 13.0731C84.2019 13.1151 83.5082 13.0332 82.947 12.8274C82.3858 12.6174 81.964 12.2878 81.6807 11.8384C81.3982 11.3891 81.2611 10.8263 81.2696 10.1501V0.94043Z" fill="black"/>
<path d="M89.3868 13.0859C88.7475 13.0859 88.1817 12.9851 87.6902 12.7835C87.2033 12.5777 86.8205 12.267 86.5418 11.8512C86.2639 11.4354 86.1245 10.9063 86.1245 10.2638C86.1245 9.73456 86.2179 9.2831 86.4047 8.9094C86.5923 8.53141 86.8534 8.22275 87.188 7.98334C87.5233 7.74401 87.9122 7.5613 88.3563 7.43528C88.8042 7.30932 89.2873 7.22743 89.8049 7.18963C90.3661 7.14764 90.8163 7.09724 91.1554 7.03844C91.4992 6.97546 91.7473 6.88936 91.8996 6.78017C92.0512 6.66678 92.1278 6.5177 92.1278 6.33291V6.30772C92.1278 6.05574 92.0275 5.86255 91.8277 5.72817C91.6271 5.59378 91.3706 5.52659 91.0574 5.52659C90.7137 5.52659 90.4335 5.60008 90.216 5.74707C90.0024 5.88986 89.8745 6.11033 89.8309 6.40851H86.5157C86.5594 5.82056 86.7531 5.27881 87.0969 4.78326C87.4445 4.28351 87.9513 3.88455 88.6174 3.58637C89.2827 3.284 90.1134 3.13281 91.1095 3.13281C91.8277 3.13281 92.4715 3.21471 93.0412 3.37849C93.6108 3.53808 94.0962 3.76276 94.4966 4.05253C94.8963 4.3381 95.201 4.67407 95.41 5.06044C95.6229 5.4426 95.7293 5.85836 95.7293 6.30772V12.9347H92.3628V11.574H92.284C92.0841 11.9352 91.8407 12.2271 91.5536 12.4496C91.271 12.6722 90.9464 12.8339 90.5812 12.9347C90.2198 13.0355 89.8217 13.0859 89.3868 13.0859ZM90.5613 10.8937C90.8354 10.8937 91.0927 10.8391 91.3315 10.7299C91.575 10.6207 91.7733 10.4632 91.9257 10.2574C92.0772 10.0517 92.1538 9.80175 92.1538 9.5078V8.70148C92.0581 8.73932 91.9555 8.77495 91.8468 8.80858C91.7427 8.84221 91.6294 8.8737 91.5076 8.90304C91.3905 8.93246 91.2642 8.95973 91.1294 8.98494C90.9985 9.01014 90.8614 9.03328 90.7183 9.05427C90.4396 9.09625 90.2114 9.16558 90.033 9.26211C89.8592 9.3545 89.7283 9.47003 89.6418 9.60862C89.5591 9.74299 89.5178 9.89414 89.5178 10.0621C89.5178 10.331 89.6158 10.5367 89.811 10.6795C90.007 10.8223 90.2574 10.8937 90.5613 10.8937Z" fill="black"/>
<path d="M100.809 16.7647C99.8047 16.7647 98.9433 16.6261 98.2252 16.349C97.5116 16.076 96.9573 15.698 96.5615 15.2151C96.1695 14.7363 95.9498 14.1862 95.9023 13.5647H99.3736C99.4088 13.7704 99.4954 13.9363 99.6347 14.0623C99.774 14.1883 99.9524 14.2786 100.17 14.3331C100.392 14.392 100.639 14.4214 100.913 14.4214C101.379 14.4214 101.764 14.3121 102.069 14.0938C102.377 13.8754 102.532 13.4806 102.532 12.9095V11.2717H102.428C102.297 11.5992 102.097 11.8785 101.827 12.1095C101.557 12.3362 101.233 12.5105 100.855 12.6323C100.476 12.7499 100.061 12.8087 99.6087 12.8087C98.8951 12.8087 98.2382 12.6491 97.638 12.3299C97.0423 12.0108 96.5638 11.5047 96.2024 10.8118C95.8456 10.1188 95.6672 9.21385 95.6672 8.09672C95.6672 6.92926 95.854 5.98015 96.2284 5.24942C96.6067 4.51868 97.0944 3.98323 97.69 3.64306C98.2903 3.3029 98.9211 3.13281 99.5826 3.13281C100.079 3.13281 100.514 3.21681 100.887 3.38479C101.262 3.54857 101.575 3.76906 101.827 4.04623C102.079 4.31921 102.271 4.61948 102.402 4.94705H102.48V3.2588H106.081V12.9095C106.081 13.7285 105.862 14.4235 105.423 14.9946C104.987 15.5699 104.374 16.0088 103.582 16.3112C102.791 16.6136 101.867 16.7647 100.809 16.7647ZM100.94 10.3393C101.27 10.3393 101.553 10.2511 101.788 10.0748C102.027 9.89422 102.21 9.63803 102.336 9.30624C102.467 8.9703 102.532 8.56711 102.532 8.09672C102.532 7.61799 102.467 7.20853 102.336 6.86836C102.21 6.52399 102.027 6.26152 101.788 6.08094C101.553 5.89615 101.27 5.80376 100.94 5.80376C100.609 5.80376 100.326 5.89615 100.092 6.08094C99.8606 6.26152 99.6822 6.52399 99.5566 6.86836C99.4349 7.20853 99.3736 7.61799 99.3736 8.09672C99.3736 8.57553 99.4349 8.98287 99.5566 9.3188C99.6822 9.6506 99.8606 9.90471 100.092 10.0811C100.326 10.2532 100.609 10.3393 100.94 10.3393Z" fill="black"/>
<path d="M111.246 13.1111C110.176 13.1111 109.254 12.9137 108.479 12.5189C107.71 12.12 107.116 11.5488 106.698 10.8055C106.285 10.0579 106.078 9.16344 106.078 8.12193C106.078 7.12244 106.287 6.24892 106.704 5.50139C107.122 4.75386 107.711 4.17221 108.473 3.75645C109.234 3.34069 110.132 3.13281 111.168 3.13281C111.924 3.13281 112.61 3.2462 113.223 3.47298C113.836 3.69976 114.361 4.02943 114.796 4.46199C115.23 4.89035 115.566 5.4111 115.801 6.02424C116.036 6.63739 116.153 7.32822 116.153 8.09672V8.90304H107.201V6.98805H112.838C112.834 6.71088 112.76 6.4673 112.617 6.25732C112.477 6.04314 112.288 5.87726 112.048 5.75967C111.813 5.63788 111.546 5.57698 111.246 5.57698C110.954 5.57698 110.687 5.63788 110.444 5.75967C110.199 5.87726 110.004 6.04104 109.856 6.25102C109.713 6.461 109.637 6.70668 109.628 6.98805V9.05427C109.628 9.365 109.695 9.64217 109.83 9.88579C109.965 10.1293 110.158 10.3205 110.411 10.4591C110.663 10.5976 110.967 10.6669 111.324 10.6669C111.572 10.6669 111.799 10.6333 112.003 10.5661C112.212 10.4989 112.39 10.4024 112.538 10.2763C112.686 10.1462 112.795 9.99075 112.865 9.81018H116.153C116.04 10.4821 115.772 11.0659 115.351 11.5614C114.929 12.0528 114.369 12.435 113.673 12.7079C112.982 12.9767 112.173 13.1111 111.246 13.1111Z" fill="black"/>
<path d="M119.755 7.49204V12.9347H116.153V3.2588H119.572V5.09823H119.676C119.894 4.48509 120.277 4.00423 120.825 3.65567C121.378 3.3071 122.022 3.13281 122.757 3.13281C123.466 3.13281 124.081 3.2903 124.603 3.60527C125.129 3.91604 125.536 4.3444 125.823 4.89035C126.115 5.4363 126.259 6.05994 126.254 6.76127V12.9347H122.652V7.49204C122.656 7.01325 122.53 6.63738 122.273 6.36441C122.022 6.09143 121.669 5.95495 121.216 5.95495C120.921 5.95495 120.662 6.01794 120.44 6.14393C120.222 6.26572 120.055 6.44211 119.938 6.67309C119.82 6.89986 119.759 7.17283 119.755 7.49204Z" fill="black"/>
<path d="M131.391 13.1111C130.303 13.1111 129.372 12.9032 128.598 12.4875C127.823 12.0675 127.23 11.4837 126.817 10.7362C126.403 9.98446 126.197 9.11303 126.197 8.12193C126.197 7.13084 126.403 6.26152 126.817 5.51399C127.23 4.76226 127.823 4.17852 128.598 3.76275C129.372 3.34279 130.303 3.13281 131.391 3.13281C132.374 3.13281 133.224 3.305 133.942 3.64937C134.664 3.98953 135.223 4.47249 135.619 5.09823C136.015 5.71977 136.215 6.4505 136.219 7.29042H132.878C132.831 6.78227 132.678 6.39591 132.422 6.13133C132.169 5.86255 131.843 5.72817 131.443 5.72817C131.129 5.72817 130.855 5.81636 130.621 5.99274C130.386 6.16493 130.203 6.42741 130.073 6.78017C129.942 7.12874 129.877 7.56758 129.877 8.09672C129.877 8.62587 129.942 9.06683 130.073 9.41962C130.203 9.76819 130.386 10.0307 130.621 10.207C130.855 10.3792 131.129 10.4653 131.443 10.4653C131.708 10.4653 131.943 10.4065 132.148 10.2889C132.352 10.1672 132.518 9.99075 132.644 9.75977C132.774 9.52458 132.852 9.23905 132.878 8.90304H136.219C136.206 9.75555 136.004 10.4989 135.612 11.1331C135.221 11.763 134.667 12.2501 133.948 12.5946C133.235 12.9389 132.383 13.1111 131.391 13.1111Z" fill="black"/>
<path d="M138.428 16.5632C138.015 16.5632 137.621 16.5317 137.247 16.4686C136.872 16.4099 136.544 16.328 136.261 16.223L137.045 13.7536C137.34 13.8544 137.61 13.9195 137.854 13.9488C138.102 13.9783 138.312 13.9615 138.486 13.8985C138.665 13.8355 138.793 13.7158 138.871 13.5394L138.95 13.363L135.426 3.25879H139.184L140.803 9.96139H140.907L142.552 3.25879H146.336L142.683 13.741C142.5 14.2744 142.234 14.7531 141.886 15.1773C141.543 15.6056 141.09 15.9437 140.529 16.1914C139.968 16.4393 139.267 16.5632 138.428 16.5632Z" fill="black"/>
</g>
<defs>
<clipPath id="clip0_24_487">
<rect width="147" height="17" fill="white"/>
</clipPath>
</defs>
</svg>
