<svg width="109" height="50" viewBox="0 0 109 50" fill="none" xmlns="http://www.w3.org/2000/svg">
<g clip-path="url(#clip0_5_214)">
<path d="M11.9847 10.8696C11.8072 10.8948 11.2748 10.983 10.7803 11.0586C8.98007 11.3483 7.25588 12.1546 5.97541 13.3261C4.09909 15.0268 2.81862 18.1259 2.80594 20.9981C2.79326 22.5477 2.99611 23.2531 3.75678 24.3869C4.41603 25.3695 5.34152 26.0372 7.28124 26.9443C8.15601 27.36 9.17024 27.8261 9.5379 28.0025C10.4254 28.4308 11.4269 29.3378 11.6171 29.9047C11.9974 31.0511 11.3889 32.7896 10.362 33.5203C9.69004 33.9864 8.57438 34.1123 7.94049 33.7974C7.21785 33.4195 7.015 32.9282 7.07839 31.7062C7.11642 31.1141 7.17981 30.5346 7.23053 30.4086C7.31927 30.2071 7.10375 30.1945 3.89624 30.1945H0.47321L0.270363 31.2905C-0.0846177 33.2305 0.0421612 34.7044 0.676056 35.9264C0.954969 36.4933 1.8551 37.3751 2.4256 37.6649C3.88356 38.4082 6.91358 38.7735 9.56326 38.5341C14.8246 38.0428 17.7278 35.813 18.9322 31.3408C19.1858 30.3708 19.2492 29.8291 19.2618 28.5568C19.2745 26.9946 19.2745 26.9694 18.8181 26.0246C18.5646 25.5081 18.1715 24.8656 17.9433 24.6011C17.2714 23.8452 16.0417 23.0516 14.4316 22.3335C11.4523 20.9981 10.5775 20.4312 10.1591 19.562C9.56326 18.3148 10.3746 16.3118 11.6931 15.7575C12.2256 15.5307 13.0497 15.5307 13.4934 15.7575C14.1146 16.085 14.3935 17.2062 14.1653 18.4408L14.0512 19.1085H17.3221H20.6057L20.6944 18.7558C20.7578 18.5668 20.7959 17.5968 20.7959 16.5889C20.7832 14.989 20.7578 14.6741 20.5043 14.0442C19.8957 12.5325 18.5899 11.5751 16.5488 11.109C15.6486 10.9074 12.6693 10.7436 11.9847 10.8696Z" fill="white"/>
<path d="M99.1452 10.9326C93.0598 11.7514 90.0932 16.2488 88.3563 27.297C88.0267 29.3504 88.0267 33.0919 88.3563 34.2257C88.8254 35.9264 89.7509 37.1358 91.0187 37.7405C93.0345 38.7105 96.952 38.8869 99.7284 38.1184C102.911 37.2366 105.129 34.8052 106.625 30.5598C108.349 25.6467 109.3 18.655 108.654 15.6441C108.134 13.238 106.727 11.7766 104.318 11.1593C103.151 10.8696 100.502 10.7436 99.1452 10.9326ZM101.11 15.7449C102.239 16.2992 102.112 18.8187 100.54 26.4152C99.272 32.5502 98.5494 33.9738 96.673 33.9738C95.8997 33.9738 95.4686 33.6966 95.2024 33.0289C94.8094 31.9959 95.1137 29.4386 96.3054 23.5807C97.4337 18.0629 98.0803 16.3622 99.234 15.7953C99.7284 15.5433 100.667 15.5181 101.11 15.7449Z" fill="white"/>
<path d="M28.0222 11.701C27.9334 11.9278 25.9557 16.4504 23.6483 21.754C21.3283 27.0576 18.7673 32.9408 17.9433 34.8304L16.4473 38.257L20.1365 38.2318L23.8385 38.194L24.6499 35.8256L25.4739 33.4699H28.3011H31.1409L31.0522 35.8634L30.9635 38.257H34.6908H38.4181L37.7588 25.2436C37.4038 18.1007 37.0996 12.0286 37.0996 11.764L37.0869 11.2979H32.6369H28.1997L28.0222 11.701ZM31.4959 22.4595C31.4199 25.5711 31.3311 28.1284 31.3184 28.1536C31.3058 28.1662 30.4056 28.1662 29.328 28.1536L27.3756 28.1158L28.935 23.8326C31.3311 17.244 31.534 16.7023 31.5973 16.7527C31.6227 16.7905 31.5847 19.3478 31.4959 22.4595Z" fill="white"/>
<path d="M43.8824 11.5121C43.8444 11.6381 42.678 17.6346 41.2708 24.8404C39.8762 32.0463 38.6972 38.0176 38.6718 38.1058C38.6211 38.2318 39.293 38.257 41.93 38.2318L45.239 38.194L46.849 29.9677C48.269 22.724 48.624 21.0737 48.624 21.7666C48.624 21.8674 48.9409 25.4829 49.3212 29.8165C49.7016 34.1501 50.0185 37.8161 50.0185 37.9672V38.257H53.8853H57.752L57.8281 37.9546C57.8661 37.7909 59.0579 31.744 60.4651 24.5129L63.0387 11.3609L59.8059 11.3231C58.0309 11.3105 56.5476 11.3231 56.5096 11.3483C56.4842 11.3861 56.1546 12.9608 55.7743 14.8505C54.7601 20.0533 53.581 26.138 53.4162 26.9821C53.3401 27.3978 53.2387 27.7757 53.2007 27.8387C53.15 27.8891 53.0359 27.0324 52.9598 25.949C52.5414 20.5572 51.9202 12.7844 51.8441 12.079L51.7681 11.2979H47.8633C44.2501 11.2979 43.9458 11.3105 43.8824 11.5121Z" fill="white"/>
<path d="M63.5838 11.3231C63.5711 11.3483 62.3921 17.3952 60.9468 24.7775L58.3098 38.194L63.6472 38.2318C69.2762 38.2696 70.7849 38.1814 72.116 37.7405C74.4615 36.972 76.4772 35.0194 77.669 32.3739C78.7212 30.0433 80.0904 23.9964 80.5722 19.4864C80.9779 15.8835 79.951 13.1498 77.7831 12.0538C76.5279 11.4113 76.211 11.3861 69.7072 11.3357C66.3349 11.2979 63.5838 11.2979 63.5838 11.3231ZM72.3316 16.5008C72.5724 16.589 72.8894 16.8409 73.0542 17.0803C73.6374 17.9243 73.3965 20.4942 72.2048 26.2136C71.1525 31.2653 70.4933 32.6888 69.0607 33.0919C68.8071 33.1549 68.0845 33.2179 67.4633 33.2179H66.3476L66.3983 32.8652C66.4237 32.6762 67.159 28.8843 68.0338 24.4373L69.6058 16.337L70.7468 16.3496C71.3807 16.3496 72.0907 16.4126 72.3316 16.5008Z" fill="white"/>
<path d="M81.3963 21.4013C81.3583 21.565 81.0667 23.0516 80.7497 24.7145C80.4328 26.3774 80.1539 27.8387 80.1158 27.9521C80.0524 28.1662 80.2806 28.1788 83.6403 28.1788H87.2281L87.8367 24.9916C88.179 23.2531 88.4832 21.6658 88.5213 21.4643L88.5847 21.1241H85.0222H81.4597L81.3963 21.4013Z" fill="white"/>
<path d="M0.194336 46.6974V49.9728H54.5825H108.971V46.6974V43.422H54.5825H0.194336V46.6974Z" fill="white"/>
<path d="M0.194336 3.69744V6.97284H54.5825H108.971V3.69744V0.422038H54.5825H0.194336V3.69744Z" fill="white"/>
</g>
<defs>
<clipPath id="clip0_5_214">
<rect width="109" height="50" fill="white"/>
</clipPath>
</defs>
</svg>
