<svg width="12" height="13" viewBox="0 0 12 13" fill="none" xmlns="http://www.w3.org/2000/svg">
<g clip-path="url(#clip0_19_209)">
<path d="M0.585559 12.4999C0.469655 12.4999 0.356349 12.4656 0.259972 12.4012C0.163595 12.3368 0.0884772 12.2453 0.0441199 12.1382C-0.000237285 12.0311 -0.011841 11.9133 0.0107766 11.7996C0.0333942 11.6859 0.0892169 11.5815 0.171184 11.4996L10.9993 0.671457C11.1092 0.561558 11.2583 0.499817 11.4137 0.499817C11.5691 0.499817 11.7182 0.561558 11.8281 0.671457C11.938 0.781356 11.9997 0.930411 11.9997 1.08583C11.9997 1.24125 11.938 1.39031 11.8281 1.50021L0.999934 12.3283C0.945567 12.3828 0.880974 12.426 0.809862 12.4555C0.738751 12.4849 0.662524 12.5 0.585559 12.4999Z" fill="white"/>
<path d="M11.4137 12.4999C11.3367 12.5 11.2605 12.4849 11.1893 12.4555C11.1182 12.426 11.0536 12.3828 10.9993 12.3283L0.171151 1.50021C0.0612524 1.39031 -0.000488281 1.24125 -0.000488281 1.08583C-0.000488281 0.930411 0.0612524 0.781356 0.171151 0.671457C0.281051 0.561558 0.430106 0.499817 0.585527 0.499817C0.740947 0.499817 0.890002 0.561558 0.999902 0.671457L11.828 11.4996C11.91 11.5815 11.9658 11.6859 11.9884 11.7996C12.0111 11.9133 11.9994 12.0311 11.9551 12.1382C11.9107 12.2453 11.8356 12.3368 11.7392 12.4012C11.6429 12.4656 11.5296 12.4999 11.4137 12.4999Z" fill="white"/>
</g>
<defs>
<clipPath id="clip0_19_209">
<rect width="12" height="12" fill="white" transform="translate(0 0.5)"/>
</clipPath>
</defs>
</svg>
