<svg width="24" height="24" viewBox="0 0 24 24" fill="none" xmlns="http://www.w3.org/2000/svg">
<g clip-path="url(#clip0_24_453)">
<path d="M1.17161 24C0.939799 24 0.713187 23.9313 0.520433 23.8025C0.327678 23.6738 0.177443 23.4907 0.0887282 23.2766C1.37109e-05 23.0624 -0.0231937 22.8267 0.0220414 22.5994C0.0672766 22.372 0.178922 22.1632 0.342856 21.9993L21.9991 0.343081C22.2189 0.123283 22.517 -0.000198364 22.8279 -0.000198364C23.1387 -0.000198364 23.4368 0.123283 23.6566 0.343081C23.8764 0.562879 23.9999 0.86099 23.9999 1.17183C23.9999 1.48267 23.8764 1.78078 23.6566 2.00058L2.00036 23.6568C1.89162 23.7658 1.76244 23.8522 1.62021 23.9111C1.47799 23.97 1.32554 24.0002 1.17161 24Z" fill="white"/>
<path d="M22.8278 24C22.6739 24.0002 22.5214 23.97 22.3792 23.9111C22.237 23.8522 22.1078 23.7658 21.999 23.6568L0.342791 2.00058C0.122993 1.78078 -0.000488281 1.48267 -0.000488281 1.17183C-0.000488281 0.86099 0.122993 0.562879 0.342791 0.343081C0.562589 0.123283 0.8607 -0.000198364 1.17154 -0.000198364C1.48238 -0.000198364 1.78049 0.123283 2.00029 0.343081L23.6565 21.9993C23.8205 22.1632 23.9321 22.372 23.9774 22.5994C24.0226 22.8267 23.9994 23.0624 23.9107 23.2766C23.822 23.4907 23.6717 23.6738 23.479 23.8025C23.2862 23.9313 23.0596 24 22.8278 24Z" fill="white"/>
</g>
<defs>
<clipPath id="clip0_24_453">
<rect width="24" height="24" fill="white"/>
</clipPath>
</defs>
</svg>
