<svg width="368" height="171" viewBox="0 0 368 171" fill="none" xmlns="http://www.w3.org/2000/svg">
<path d="M40.4624 37.175C39.8632 37.2612 38.0655 37.5627 36.3962 37.8213C30.3182 38.8122 24.4971 41.5696 20.1741 45.5764C13.8393 51.3927 9.51626 61.9914 9.47346 71.8146C9.43066 77.114 10.1155 79.5267 12.6836 83.4042C14.9094 86.7648 18.0339 89.0483 24.5827 92.1503C27.5361 93.5721 30.9603 95.1662 32.2015 95.7694C35.1977 97.2342 38.5791 100.336 39.2211 102.275C40.5052 106.196 38.4507 112.141 34.9837 114.64C32.7152 116.234 28.9486 116.665 26.8084 115.588C24.3687 114.296 23.6839 112.615 23.8979 108.436C24.0263 106.411 24.2403 104.429 24.4115 103.998C24.7111 103.309 23.9835 103.266 13.1545 103.266H1.59781L0.912974 107.014C-0.285494 113.649 0.142531 118.69 2.28265 122.869C3.2243 124.808 6.26328 127.824 8.18939 128.815C13.1117 131.357 23.3414 132.606 32.2871 131.788C50.0502 130.107 59.8519 122.482 63.9181 107.187C64.7742 103.869 64.9882 102.017 65.031 97.6651C65.0738 92.3227 65.0738 92.2365 63.5329 89.0052C62.6769 87.2387 61.35 85.0414 60.5795 84.1367C58.311 81.5516 54.1592 78.8373 48.7233 76.3815C38.6647 71.8146 35.7113 69.8758 34.2989 66.903C32.2871 62.6377 35.0265 55.7873 39.478 53.8916C41.2757 53.1161 44.0578 53.1161 45.5559 53.8916C47.6532 55.0118 48.5949 58.8463 47.8244 63.0685L47.4392 65.352H58.4822H69.5681L69.8677 64.1456C70.0817 63.4994 70.2101 60.1819 70.2101 56.7352C70.1673 51.2635 70.0817 50.1864 69.2256 48.0322C67.1711 42.8621 62.7625 39.5877 55.8713 37.9936C52.8323 37.3042 42.7737 36.7441 40.4624 37.175Z" fill="white"/>
<path d="M334.729 37.3906C314.184 40.1911 304.168 55.5721 298.304 93.3569C297.192 100.38 297.192 113.176 298.304 117.053C299.888 122.869 303.013 127.006 307.293 129.074C314.098 132.391 327.324 132.994 336.698 130.366C347.442 127.35 354.932 119.035 359.983 104.516C365.804 87.7128 369.014 63.8012 366.831 53.5041C365.076 45.275 360.325 40.2772 352.193 38.1661C348.255 37.1752 339.309 36.7443 334.729 37.3906ZM341.364 53.8487C345.173 55.7444 344.745 64.3613 339.438 90.341C335.157 111.323 332.718 116.191 326.383 116.191C323.772 116.191 322.317 115.244 321.418 112.96C320.091 109.427 321.118 100.681 325.141 80.647C328.951 61.7762 331.134 55.9598 335.029 54.0211C336.698 53.1594 339.866 53.0732 341.364 53.8487Z" fill="white"/>
<path d="M94.6074 40.0185C94.3078 40.794 87.6306 56.2612 79.8406 74.3996C72.0077 92.5381 63.3617 112.658 60.5795 119.121L55.5288 130.84L67.9843 130.754L80.4826 130.624L83.222 122.525L86.0041 114.468H95.5491H105.137L104.837 122.654L104.538 130.84H117.121H129.705L127.48 86.334C126.281 61.9053 125.254 41.1387 125.254 40.2339L125.211 38.6398H110.188H95.2067L94.6074 40.0185ZM106.335 76.8124C106.078 87.4541 105.779 96.2002 105.736 96.2864C105.693 96.3295 102.654 96.3295 99.0161 96.2864L92.4245 96.1571L97.6892 81.5085C105.779 58.9755 106.464 57.1229 106.678 57.2952C106.763 57.4245 106.635 66.1706 106.335 76.8124Z" fill="white"/>
<path d="M148.153 39.3723C148.025 39.8031 144.087 60.3111 139.336 84.9553C134.628 109.599 130.647 130.021 130.562 130.323C130.39 130.754 132.659 130.84 141.562 130.754L152.733 130.624L158.169 102.49C162.963 77.7171 164.161 72.0731 164.161 74.4427C164.161 74.7874 165.232 87.1525 166.516 101.973C167.8 116.794 168.87 129.332 168.87 129.849V130.84H181.924H194.979L195.236 129.806C195.364 129.246 199.388 108.565 204.139 83.8351L212.828 38.8552L201.913 38.726C195.921 38.6829 190.913 38.726 190.785 38.8122C190.699 38.9414 189.586 44.3269 188.302 50.7896C184.878 68.5833 180.897 89.3929 180.341 92.2796C180.084 93.7013 179.742 94.9939 179.613 95.2093C179.442 95.3816 179.057 92.4519 178.8 88.7467C177.387 70.3067 175.29 43.7238 175.033 41.311L174.776 38.6398H161.593C149.395 38.6398 148.367 38.6829 148.153 39.3723Z" fill="white"/>
<path d="M214.668 38.7257C214.625 38.8119 210.645 59.4923 205.765 84.7396L196.862 130.624L214.882 130.753C233.886 130.883 238.98 130.581 243.474 129.073C251.393 126.445 258.198 119.767 262.222 110.719C265.774 102.749 270.397 82.0683 272.023 66.6442C273.393 54.3222 269.926 44.9729 262.607 41.2246C258.369 39.0273 257.299 38.9411 235.342 38.7688C223.956 38.6396 214.668 38.6396 214.668 38.7257ZM244.202 56.4333C245.015 56.7349 246.085 57.5966 246.642 58.4152C248.61 61.3018 247.797 70.091 243.774 89.6511C240.221 106.928 237.995 111.796 233.159 113.175C232.303 113.39 229.863 113.606 227.766 113.606H223.999L224.17 112.4C224.256 111.753 226.738 98.785 229.692 83.5763L234.999 55.8732L238.851 55.9163C240.992 55.9163 243.389 56.1317 244.202 56.4333Z" fill="white"/>
<path d="M274.806 73.1938C274.677 73.7539 273.693 78.8378 272.623 84.5249C271.553 90.212 270.611 95.2098 270.483 95.5975C270.269 96.33 271.039 96.373 282.382 96.373H294.495L296.549 85.4728C297.705 79.5272 298.732 74.0986 298.861 73.4092L299.075 72.2459H287.047H275.02L274.806 73.1938Z" fill="white"/>
<path d="M0.656006 159.706V170.908H184.278H367.901V159.706V148.504H184.278H0.656006V159.706Z" fill="white"/>
<path d="M0.656494 12.6477V23.8496H184.279H367.901V12.6477V1.44587H184.279H0.656494V12.6477Z" fill="white"/>
</svg>
