<svg width="32" height="42" viewBox="0 0 32 42" fill="none" xmlns="http://www.w3.org/2000/svg">
<path d="M16.7272 7.76417V6.27269H18.1819C18.5835 6.27269 18.909 5.94697 18.909 5.54533C18.909 5.1437 18.5835 4.81824 18.1819 4.81824H13.8183C13.4166 4.81824 13.0909 5.1437 13.0909 5.54533C13.0909 5.94697 13.4166 6.27269 13.8183 6.27269H15.2727V7.76417C8.34375 8.15222 2.92037 13.8782 2.90918 20.8181H29.091C29.0795 13.8782 23.6564 8.15222 16.7272 7.76417ZM13.8183 13.5455C12.7521 13.5455 10.7791 14.0539 10.1442 15.9574C10.0675 16.2107 9.8592 16.4025 9.60032 16.4579C9.34144 16.5135 9.07298 16.4238 8.89906 16.224C8.72541 16.0243 8.67401 15.7457 8.76483 15.4972C9.54759 13.398 11.5787 12.0287 13.8183 12.0908C14.2199 12.0908 14.5454 12.4165 14.5454 12.8181C14.5454 13.2198 14.2199 13.5455 13.8183 13.5455Z" fill="white"/>
<path d="M30.5455 22.2728H1.45446C0.65119 22.2728 0 22.924 0 23.7273C0 24.5306 0.65119 25.1817 1.45446 25.1817H30.5455C31.3487 25.1817 31.9999 24.5306 31.9999 23.7273C31.9999 22.924 31.3487 22.2728 30.5455 22.2728Z" fill="white"/>
<path d="M9.98992 30.98V38H8.27992V33.79L6.70992 38H5.32992L3.74992 33.78V38H2.03992V30.98H4.05992L6.02992 35.84L7.97992 30.98H9.98992ZM12.9296 32.35V33.77H15.2196V35.09H12.9296V36.63H15.5196V38H11.2196V30.98H15.5196V32.35H12.9296ZM22.9098 38H21.1998L18.3398 33.67V38H16.6298V30.98H18.3398L21.1998 35.33V30.98H22.9098V38ZM25.8293 30.98V35.18C25.8293 35.6 25.9326 35.9233 26.1393 36.15C26.346 36.3767 26.6493 36.49 27.0493 36.49C27.4493 36.49 27.756 36.3767 27.9693 36.15C28.1826 35.9233 28.2893 35.6 28.2893 35.18V30.98H29.9993V35.17C29.9993 35.7967 29.866 36.3267 29.5993 36.76C29.3326 37.1933 28.9726 37.52 28.5193 37.74C28.0726 37.96 27.5726 38.07 27.0193 38.07C26.466 38.07 25.9693 37.9633 25.5293 37.75C25.096 37.53 24.7526 37.2033 24.4993 36.77C24.246 36.33 24.1193 35.7967 24.1193 35.17V30.98H25.8293Z" fill="white"/>
</svg>
