<svg width="22" height="24" viewBox="0 0 22 24" fill="none" xmlns="http://www.w3.org/2000/svg">
<path d="M21.515 6.01855C20.1453 6.01855 18.8815 5.5648 17.8667 4.79934C16.7028 3.92184 15.8665 2.63465 15.5712 1.15105C15.4981 0.784492 15.4587 0.406211 15.455 0.0185547H11.5423V10.7098L11.5376 16.5659C11.5376 18.1315 10.5181 19.459 9.10481 19.9259C8.69465 20.0614 8.25168 20.1256 7.79043 20.1003C7.20168 20.0679 6.64996 19.8903 6.17043 19.6034C5.14996 18.9931 4.45809 17.8859 4.43934 16.6193C4.40981 14.6398 6.01012 13.0259 7.98824 13.0259C8.37871 13.0259 8.75371 13.0896 9.10481 13.2054V10.2832V9.23277C8.73449 9.17793 8.35762 9.14934 7.97652 9.14934C5.81137 9.14934 3.78637 10.0493 2.33887 11.6707C1.2448 12.8961 0.588555 14.4593 0.487305 16.0986C0.354649 18.252 1.14262 20.299 2.67074 21.8093C2.89527 22.0311 3.13105 22.2368 3.37762 22.4267C4.68777 23.435 6.28949 23.9815 7.97652 23.9815C8.35762 23.9815 8.73449 23.9534 9.10481 23.8986C10.6807 23.6651 12.1348 22.9437 13.2823 21.8093C14.6923 20.4157 15.4714 18.5656 15.4798 16.5964L15.4597 7.85137C16.1323 8.37027 16.8678 8.79965 17.6572 9.13293C18.8848 9.6509 20.1865 9.9134 21.5262 9.91293V7.07184V6.01762C21.5272 6.01855 21.5159 6.01855 21.515 6.01855Z" fill="white"/>
</svg>
