<svg width="64" height="64" viewBox="0 0 64 64" fill="none" xmlns="http://www.w3.org/2000/svg">
<g clip-path="url(#clip0_2540_863)">
<path d="M53.5235 6.6373C52.3971 7.28705 51.0811 7.90547 49.5586 8.42255C50.8858 8.93128 52.194 9.49746 53.4752 10.1211C54.8227 9.24989 55.7741 8.49881 56.3508 8.00784C55.4229 7.5221 54.4805 7.0656 53.5235 6.6373Z" fill="#C19855"/>
<path d="M42.6316 21.3642L39.7463 20.9168L38.3185 18.3379L42.6316 21.3642ZM53.8922 20.9717V29.1766C53.8922 35.9282 50.9577 42.3159 45.842 46.6987L44.6113 47.7528L42.1235 49.8843C30.2299 45.7379 34.8189 33.0712 34.8189 33.0712C29.1174 30.4572 29.8916 25.2269 29.8916 25.2269C31.58 30.81 35.6445 30.7848 38.1268 31.5169C41.7523 32.5842 41.818 35.8919 41.818 35.8919L46.707 36.6735C49.2069 36.0018 50.9063 33.7297 50.9063 31.186C50.9063 30.9683 50.8931 30.7485 50.8679 30.5275L44.0134 18.272C43.6619 17.6432 43.1506 17.1199 42.5319 16.7539L37.1414 13.5671C37.1414 13.5671 35.1003 8.12584 44.1809 6.92436C53.2276 5.72837 56.5694 -0.000937989 56.5694 -0.000937989C48.9671 3.95638 43.3356 0.91804 36.1548 3.39246C28.974 5.86688 29.7054 12.0722 29.7054 12.0722C19.4521 12.9472 12.6885 15.9272 9.76928 17.4816V10.409C15.8289 7.15191 22.4819 5.33484 29.2028 4.95999C30.1379 3.74202 31.4771 2.53174 33.3944 1.57429C32.8732 1.5578 32.352 1.54901 31.8308 1.54901C23.2626 1.54901 14.7875 3.7783 7.32093 7.99613L6.48438 8.46881V29.1766C6.48438 36.8955 9.83827 44.1968 15.6876 49.2072L31.8308 63.0391L47.9739 49.2072C48.1688 49.0401 48.3615 48.8697 48.551 48.6971C54.0433 43.7087 57.1772 36.6383 57.1772 29.1766V17.9719C56.0986 19.1382 54.9555 20.1407 53.8922 20.9717Z" fill="#C19855"/>
<path d="M48.364 21.4062C48.364 21.4062 57.5303 16.8 58.9998 9.29593C58.9998 9.29593 54.9876 13.8313 46.0781 17.2909L48.364 21.4062Z" fill="#C19855"/>
</g>
<defs>
<clipPath id="clip0_2540_863">
<rect width="64" height="64" fill="white"/>
</clipPath>
</defs>
</svg>
